<svg xmlns="http://www.w3.org/2000/svg" viewBox="0 0 160 160" width="160" height="160" role="img" aria-label="Jellymesh">
  <defs>
    <radialGradient id="g" cx="50%" cy="50%" r="50%">
      <stop offset="0%" stop-color="#aa5cc7" stop-opacity="0.85"/>
      <stop offset="100%" stop-color="#00a4dc" stop-opacity="0.85"/>
    </radialGradient>
    <filter id="glow" x="-30%" y="-30%" width="160%" height="160%">
      <feGaussianBlur stdDeviation="1.4" result="b"/>
      <feMerge><feMergeNode in="b"/><feMergeNode in="SourceGraphic"/></feMerge>
    </filter>
  </defs>

  <circle cx="80" cy="80" r="76" fill="none" stroke="url(#g)" stroke-width="2" opacity="0.4"/>

  <g stroke="url(#g)" stroke-width="1.6" stroke-linecap="round" opacity="0.7" fill="none" filter="url(#glow)">
    <line x1="80" y1="20" x2="125" y2="60"/>
    <line x1="80" y1="20" x2="35"  y2="60"/>
    <line x1="125" y1="60" x2="140" y2="115"/>
    <line x1="35"  y1="60" x2="20"  y2="115"/>
    <line x1="140" y1="115" x2="80"  y2="142"/>
    <line x1="20"  y1="115" x2="80"  y2="142"/>
    <line x1="80"  y1="20"  x2="80"  y2="142"/>
    <line x1="35"  y1="60"  x2="125" y2="60"/>
    <line x1="20"  y1="115" x2="140" y2="115"/>
  </g>

  <g fill="url(#g)" filter="url(#glow)">
    <circle cx="80"  cy="20"  r="6"/>
    <circle cx="125" cy="60"  r="6"/>
    <circle cx="140" cy="115" r="6"/>
    <circle cx="80"  cy="142" r="6"/>
    <circle cx="20"  cy="115" r="6"/>
    <circle cx="35"  cy="60"  r="6"/>
    <circle cx="80"  cy="80"  r="9" fill="#fff" opacity="0.95"/>
  </g>
</svg>
